<svg width="1317" height="523" viewBox="0 0 1317 523" fill="none" xmlns="http://www.w3.org/2000/svg">
<g clip-path="url(#clip0_2519_22910)">
<path fill-rule="evenodd" clip-rule="evenodd" d="M101.767 24.2687C100.281 24.2211 98.79 24.1971 97.2931 24.1971C68.1303 24.1971 41.0939 33.3013 18.871 48.8226C-3.3518 33.3012 -30.3882 24.197 -59.551 24.197C-62.6879 24.197 -65.8002 24.3023 -68.8845 24.5097C-44.0923 8.97862 -14.7767 -9.20868e-05 16.636 -8.79675e-05C17.6126 -8.78394e-05 18.5871 0.00858691 19.5595 0.0258714C49.7035 0.562317 77.8297 9.36713 101.767 24.2687Z" fill="#1F2A5E"/>
<path fill-rule="evenodd" clip-rule="evenodd" d="M704.006 72.6629C702.521 72.6153 701.029 72.5913 699.533 72.5913C670.37 72.5913 643.333 81.6955 621.111 97.2168C598.888 81.6955 571.851 72.5913 542.688 72.5913C539.552 72.5913 536.439 72.6966 533.355 72.9039C558.147 57.3729 587.463 48.3942 618.876 48.3942C619.852 48.3942 620.827 48.4029 621.799 48.4201C651.943 48.9566 680.069 57.7614 704.006 72.6629Z" fill="#1F2A5E"/>
<path fill-rule="evenodd" clip-rule="evenodd" d="M103.184 121.057C101.698 121.01 100.207 120.986 98.7102 120.986C69.5474 120.986 42.511 130.09 20.2881 145.611C-1.93468 130.09 -28.9711 120.985 -58.1339 120.985C-61.2708 120.985 -64.3831 121.091 -67.4674 121.298C-42.6752 105.767 -13.3596 96.7884 18.0531 96.7884C19.0297 96.7884 20.0042 96.7971 20.9767 96.8144C51.1206 97.3508 79.2468 106.156 103.184 121.057Z" fill="#1F2A5E"/>
<path fill-rule="evenodd" clip-rule="evenodd" d="M705.423 169.451C703.938 169.404 702.447 169.38 700.95 169.38C671.787 169.38 644.75 178.484 622.528 194.005C600.305 178.484 573.268 169.38 544.106 169.38C540.969 169.38 537.856 169.485 534.772 169.692C559.564 154.161 588.88 145.183 620.293 145.183C621.269 145.183 622.244 145.191 623.216 145.209C653.36 145.745 681.486 154.55 705.423 169.451Z" fill="#1F2A5E"/>
<path fill-rule="evenodd" clip-rule="evenodd" d="M17.1496 169.451C15.6643 169.404 14.1729 169.38 12.676 169.38C-16.4868 169.38 -43.5232 178.484 -65.746 194.005C-87.9689 178.484 -115.005 169.38 -144.168 169.38C-147.305 169.38 -150.417 169.485 -153.502 169.692C-128.709 154.161 -99.3938 145.183 -67.9811 145.183C-67.0045 145.183 -66.03 145.191 -65.0575 145.209C-34.9136 145.745 -6.78737 154.55 17.1496 169.451Z" fill="#1F2A5E"/>
<path fill-rule="evenodd" clip-rule="evenodd" d="M619.389 217.846C617.904 217.798 616.412 217.774 614.916 217.774C585.753 217.774 558.716 226.878 536.493 242.4C514.271 226.878 487.234 217.774 458.071 217.774C454.935 217.774 451.822 217.879 448.738 218.087C473.53 202.556 502.846 193.577 534.258 193.577C535.235 193.577 536.21 193.586 537.182 193.603C567.326 194.139 595.452 202.944 619.389 217.846Z" fill="#1F2A5E"/>
<path fill-rule="evenodd" clip-rule="evenodd" d="M19.8382 363.028C18.3529 362.981 16.8615 362.957 15.3646 362.957C-13.7982 362.957 -40.8346 372.061 -63.0574 387.582C-85.2802 372.061 -112.317 362.957 -141.479 362.957C-144.616 362.957 -147.729 363.062 -150.813 363.269C-126.021 347.738 -96.7052 338.76 -65.2924 338.76C-64.3159 338.76 -63.3413 338.768 -62.3689 338.786C-32.225 339.322 -4.09876 348.127 19.8382 363.028Z" fill="#1F2A5E"/>
<path fill-rule="evenodd" clip-rule="evenodd" d="M113.938 411.423C112.453 411.375 110.961 411.351 109.464 411.351C80.3016 411.351 53.2652 420.455 31.0424 435.977C8.81959 420.455 -18.2168 411.351 -47.3796 411.351C-50.5165 411.351 -53.6288 411.456 -56.7131 411.664C-31.921 396.133 -2.60533 387.154 28.8074 387.154C29.784 387.154 30.7585 387.163 31.7309 387.18C61.8749 387.716 90.0011 396.521 113.938 411.423Z" fill="#1F2A5E"/>
<path fill-rule="evenodd" clip-rule="evenodd" d="M33.2811 459.817C31.7958 459.769 30.3044 459.745 28.8075 459.745C-0.355336 459.745 -27.3917 468.849 -49.6146 484.371C-71.8374 468.849 -98.8738 459.745 -128.037 459.745C-131.173 459.745 -134.286 459.851 -137.37 460.058C-112.578 444.527 -83.2623 435.548 -51.8496 435.548C-50.873 435.548 -49.8985 435.557 -48.9261 435.574C-18.7821 436.111 9.3441 444.915 33.2811 459.817Z" fill="#1F2A5E"/>
<path fill-rule="evenodd" clip-rule="evenodd" d="M532.083 169.451C530.598 169.404 529.107 169.38 527.61 169.38C498.447 169.38 471.411 178.484 449.188 194.005C426.965 178.484 399.929 169.38 370.766 169.38C367.629 169.38 364.517 169.485 361.432 169.692C386.224 154.161 415.54 145.183 446.953 145.183C447.929 145.183 448.904 145.191 449.876 145.209C480.02 145.745 508.146 154.55 532.083 169.451Z" fill="#1F2A5E"/>
<path fill-rule="evenodd" clip-rule="evenodd" d="M276.524 121.057C275.038 121.01 273.547 120.986 272.05 120.986C242.887 120.986 215.851 130.09 193.628 145.611C171.405 130.09 144.369 120.985 115.206 120.985C112.069 120.985 108.957 121.091 105.872 121.298C130.665 105.767 159.98 96.7884 191.393 96.7884C192.37 96.7884 193.344 96.7971 194.316 96.8144C224.46 97.3508 252.587 106.156 276.524 121.057Z" fill="#1F2A5E"/>
<path fill-rule="evenodd" clip-rule="evenodd" d="M878.763 169.451C877.278 169.404 875.786 169.38 874.289 169.38C845.127 169.38 818.09 178.484 795.867 194.005C773.645 178.484 746.608 169.38 717.445 169.38C714.308 169.38 711.196 169.485 708.112 169.692C732.904 154.161 762.22 145.183 793.632 145.183C794.609 145.183 795.583 145.191 796.556 145.209C826.7 145.745 854.826 154.55 878.763 169.451Z" fill="#1F2A5E"/>
<path fill-rule="evenodd" clip-rule="evenodd" d="M190.49 169.452C189.004 169.404 187.513 169.38 186.016 169.38C156.853 169.38 129.817 178.484 107.594 194.005C85.3712 178.484 58.3349 169.38 29.1721 169.38C26.0351 169.38 22.9227 169.485 19.8383 169.693C44.6304 154.161 73.9461 145.183 105.359 145.183C106.58 145.183 107.797 145.196 109.011 145.223C138.88 145.888 166.746 154.67 190.49 169.452Z" fill="#1F2A5E"/>
<path fill-rule="evenodd" clip-rule="evenodd" d="M792.729 217.846C791.244 217.798 789.752 217.774 788.255 217.774C759.093 217.774 732.056 226.878 709.833 242.4C687.61 226.878 660.574 217.774 631.411 217.774C628.274 217.774 625.162 217.879 622.078 218.087C646.87 202.556 676.186 193.577 707.598 193.577C708.575 193.577 709.549 193.586 710.522 193.603C740.666 194.139 768.792 202.944 792.729 217.846Z" fill="#1F2A5E"/>
<path fill-rule="evenodd" clip-rule="evenodd" d="M104.455 217.846C102.97 217.798 101.479 217.774 99.9817 217.774C70.8189 217.774 43.7825 226.878 21.5596 242.4C-0.663198 226.878 -27.6996 217.774 -56.8624 217.774C-59.9993 217.774 -63.1116 217.879 -66.1959 218.087C-41.4037 202.556 -12.0881 193.577 19.3246 193.577C20.3012 193.577 21.2757 193.586 22.2481 193.603C52.3921 194.139 80.5183 202.944 104.455 217.846Z" fill="#1F2A5E"/>
<path fill-rule="evenodd" clip-rule="evenodd" d="M706.695 266.24C705.209 266.192 703.718 266.168 702.221 266.168C673.058 266.168 646.022 275.273 623.799 290.794C601.576 275.272 574.54 266.168 545.377 266.168C542.24 266.168 539.128 266.274 536.043 266.481C560.836 250.95 590.151 241.971 621.564 241.971C622.541 241.971 623.515 241.98 624.488 241.997C654.631 242.534 682.758 251.338 706.695 266.24Z" fill="#1F2A5E"/>
<path fill-rule="evenodd" clip-rule="evenodd" d="M790.04 314.634C788.555 314.587 787.064 314.563 785.567 314.563C756.404 314.563 729.368 323.667 707.145 339.188C684.922 323.667 657.885 314.562 628.723 314.562C625.586 314.562 622.474 314.668 619.389 314.875C644.181 299.344 673.497 290.365 704.91 290.365C705.886 290.365 706.861 290.374 707.833 290.391C737.977 290.928 766.103 299.733 790.04 314.634Z" fill="#1F2A5E"/>
<path fill-rule="evenodd" clip-rule="evenodd" d="M878.763 363.028C877.278 362.981 875.786 362.957 874.289 362.957C845.127 362.957 818.09 372.061 795.867 387.582C773.645 372.061 746.608 362.957 717.445 362.957C714.308 362.957 711.196 363.062 708.112 363.269C732.904 347.738 762.22 338.76 793.632 338.76C794.609 338.76 795.583 338.768 796.556 338.786C826.7 339.322 854.826 348.127 878.763 363.028Z" fill="#1F2A5E"/>
<path fill-rule="evenodd" clip-rule="evenodd" d="M972.863 411.423C971.378 411.375 969.886 411.351 968.39 411.351C939.227 411.351 912.19 420.455 889.967 435.977C867.745 420.455 840.708 411.351 811.545 411.351C808.409 411.351 805.296 411.456 802.212 411.664C827.004 396.133 856.32 387.154 887.732 387.154C888.709 387.154 889.684 387.163 890.656 387.18C920.8 387.716 948.926 396.521 972.863 411.423Z" fill="#1F2A5E"/>
<path fill-rule="evenodd" clip-rule="evenodd" d="M892.206 459.817C890.721 459.769 889.229 459.745 887.732 459.745C858.569 459.745 831.533 468.849 809.31 484.371C787.087 468.849 760.051 459.745 730.888 459.745C727.751 459.745 724.639 459.851 721.555 460.058C746.347 444.527 775.662 435.548 807.075 435.548C808.052 435.548 809.026 435.557 809.999 435.574C840.143 436.111 868.269 444.915 892.206 459.817Z" fill="#1F2A5E"/>
<path fill-rule="evenodd" clip-rule="evenodd" d="M806.172 508.211C804.686 508.164 803.195 508.14 801.698 508.14C772.535 508.139 745.499 517.244 723.276 532.765C701.053 517.244 674.017 508.139 644.854 508.139C641.717 508.139 638.605 508.245 635.521 508.452C660.313 492.921 689.628 483.942 721.041 483.942C722.018 483.942 722.992 483.951 723.965 483.968C754.109 484.505 782.235 493.31 806.172 508.211Z" fill="#1F2A5E"/>
<path fill-rule="evenodd" clip-rule="evenodd" d="M21.1096 266.24C19.6242 266.192 18.1329 266.168 16.636 266.168C-12.5268 266.168 -39.5632 275.272 -61.7861 290.794C-84.0089 275.272 -111.045 266.168 -140.208 266.168C-143.345 266.168 -146.457 266.274 -149.542 266.481C-124.749 250.95 -95.4338 241.971 -64.0211 241.971C-63.0445 241.971 -62.07 241.98 -61.0976 241.997C-30.9536 242.534 -2.82741 251.338 21.1096 266.24Z" fill="#1F2A5E"/>
<path fill-rule="evenodd" clip-rule="evenodd" d="M104.455 314.634C102.97 314.587 101.479 314.563 99.9817 314.563C70.8189 314.563 43.7825 323.667 21.5596 339.188C-0.663198 323.667 -27.6996 314.562 -56.8624 314.562C-59.9993 314.562 -63.1116 314.668 -66.1959 314.875C-41.4037 299.344 -12.0881 290.365 19.3246 290.365C20.3012 290.365 21.2757 290.374 22.2481 290.391C52.3921 290.928 80.5183 299.733 104.455 314.634Z" fill="#1F2A5E"/>
<path fill-rule="evenodd" clip-rule="evenodd" d="M193.178 363.028C191.693 362.981 190.202 362.957 188.705 362.957C159.542 362.957 132.505 372.061 110.283 387.582C88.0598 372.061 61.0235 362.957 31.8607 362.957C28.7237 362.957 25.6113 363.062 22.5269 363.27C47.319 347.738 76.6347 338.76 108.047 338.76C109.024 338.76 109.999 338.768 110.971 338.786C141.115 339.322 169.241 348.127 193.178 363.028Z" fill="#1F2A5E"/>
<path fill-rule="evenodd" clip-rule="evenodd" d="M287.278 411.423C285.793 411.375 284.301 411.351 282.804 411.351C253.641 411.351 226.605 420.455 204.382 435.977C182.159 420.455 155.123 411.351 125.96 411.351C122.823 411.351 119.711 411.456 116.627 411.664C141.419 396.133 170.735 387.154 202.147 387.154C203.124 387.154 204.098 387.163 205.071 387.18C235.215 387.716 263.341 396.521 287.278 411.423Z" fill="#1F2A5E"/>
<path fill-rule="evenodd" clip-rule="evenodd" d="M206.621 459.817C205.136 459.769 203.644 459.745 202.147 459.745C172.985 459.745 145.948 468.85 123.725 484.371C101.503 468.85 74.4663 459.745 45.3036 459.745C42.1666 459.745 39.0542 459.851 35.9698 460.058C60.7619 444.527 90.0776 435.548 121.49 435.548C122.711 435.548 123.929 435.562 125.143 435.589C155.011 436.253 182.877 445.036 206.621 459.817Z" fill="#1F2A5E"/>
<path fill-rule="evenodd" clip-rule="evenodd" d="M120.587 508.211C119.101 508.163 117.61 508.139 116.113 508.139C86.9502 508.139 59.9138 517.244 37.691 532.765C15.4681 517.244 -11.5683 508.139 -40.7311 508.139C-43.8679 508.139 -46.9802 508.245 -50.0645 508.452C-25.2724 492.921 4.04323 483.942 35.456 483.942C36.4325 483.942 37.407 483.951 38.3795 483.968C68.5234 484.505 96.6497 493.31 120.587 508.211Z" fill="#1F2A5E"/>
<path fill-rule="evenodd" clip-rule="evenodd" d="M362.558 169.451C361.073 169.404 359.581 169.38 358.084 169.38C328.922 169.38 301.885 178.484 279.662 194.005C257.439 178.484 230.403 169.38 201.24 169.38C198.103 169.38 194.991 169.485 191.907 169.692C216.699 154.161 246.015 145.183 277.427 145.183C278.404 145.183 279.378 145.191 280.351 145.209C310.495 145.745 338.621 154.55 362.558 169.451Z" fill="#1F2A5E"/>
<path fill-rule="evenodd" clip-rule="evenodd" d="M964.797 217.846C963.312 217.798 961.821 217.774 960.324 217.774C931.161 217.774 904.125 226.878 881.902 242.4C859.679 226.878 832.643 217.774 803.48 217.774C800.343 217.774 797.231 217.879 794.146 218.087C818.938 202.556 848.254 193.577 879.667 193.577C880.643 193.577 881.618 193.586 882.59 193.603C912.734 194.139 940.86 202.944 964.797 217.846Z" fill="#1F2A5E"/>
<path fill-rule="evenodd" clip-rule="evenodd" d="M276.524 217.846C275.038 217.798 273.547 217.774 272.05 217.774C242.887 217.774 215.851 226.878 193.628 242.4C171.405 226.878 144.369 217.774 115.206 217.774C112.069 217.774 108.957 217.879 105.872 218.087C130.665 202.556 159.98 193.577 191.393 193.577C192.37 193.577 193.344 193.586 194.316 193.603C224.46 194.139 252.587 202.944 276.524 217.846Z" fill="#1F2A5E"/>
<path fill-rule="evenodd" clip-rule="evenodd" d="M878.763 266.24C877.278 266.192 875.786 266.168 874.289 266.168C845.127 266.168 818.09 275.273 795.867 290.794C773.645 275.273 746.608 266.168 717.445 266.168C714.308 266.168 711.196 266.274 708.112 266.481C732.904 250.95 762.22 241.971 793.632 241.971C794.609 241.971 795.583 241.98 796.556 241.997C826.7 242.534 854.826 251.338 878.763 266.24Z" fill="#1F2A5E"/>
<path fill-rule="evenodd" clip-rule="evenodd" d="M962.109 314.634C960.623 314.587 959.132 314.563 957.635 314.563C928.472 314.563 901.436 323.667 879.213 339.188C856.99 323.667 829.954 314.562 800.791 314.562C797.654 314.562 794.542 314.668 791.458 314.875C816.25 299.344 845.565 290.365 876.978 290.365C877.955 290.365 878.929 290.374 879.902 290.391C910.046 290.928 938.172 299.733 962.109 314.634Z" fill="#1F2A5E"/>
<path fill-rule="evenodd" clip-rule="evenodd" d="M1050.83 363.028C1049.35 362.981 1047.85 362.957 1046.36 362.957C1017.2 362.957 990.159 372.061 967.936 387.582C945.713 372.061 918.677 362.957 889.514 362.957C886.377 362.957 883.265 363.062 880.18 363.269C904.973 347.738 934.288 338.76 965.701 338.76C966.678 338.76 967.652 338.768 968.624 338.786C998.768 339.322 1026.89 348.127 1050.83 363.028Z" fill="#1F2A5E"/>
<path fill-rule="evenodd" clip-rule="evenodd" d="M1144.93 411.423C1143.45 411.375 1141.95 411.351 1140.46 411.351C1111.3 411.351 1084.26 420.455 1062.04 435.977C1039.81 420.455 1012.78 411.351 983.614 411.351C980.477 411.351 977.365 411.456 974.28 411.664C999.072 396.133 1028.39 387.154 1059.8 387.154C1060.78 387.154 1061.75 387.163 1062.72 387.18C1092.87 387.716 1120.99 396.521 1144.93 411.423Z" fill="#1F2A5E"/>
<path fill-rule="evenodd" clip-rule="evenodd" d="M1064.27 459.817C1062.79 459.769 1061.3 459.745 1059.8 459.745C1030.64 459.745 1003.6 468.85 981.379 484.371C959.156 468.849 932.12 459.745 902.957 459.745C899.82 459.745 896.708 459.851 893.623 460.058C918.415 444.527 947.731 435.548 979.144 435.548C980.12 435.548 981.095 435.557 982.067 435.574C1012.21 436.111 1040.34 444.915 1064.27 459.817Z" fill="#1F2A5E"/>
<path fill-rule="evenodd" clip-rule="evenodd" d="M978.24 508.211C976.755 508.164 975.264 508.14 973.767 508.14C944.604 508.139 917.567 517.244 895.345 532.765C873.122 517.244 846.085 508.139 816.923 508.139C813.786 508.139 810.673 508.245 807.589 508.452C832.381 492.921 861.697 483.942 893.11 483.942C894.086 483.942 895.061 483.951 896.033 483.968C926.177 484.505 954.303 493.31 978.24 508.211Z" fill="#1F2A5E"/>
<path fill-rule="evenodd" clip-rule="evenodd" d="M193.178 266.24C191.693 266.192 190.202 266.168 188.704 266.168C159.542 266.168 132.505 275.273 110.283 290.794C88.0598 275.273 61.0235 266.168 31.8607 266.168C28.7237 266.168 25.6113 266.274 22.5269 266.481C47.319 250.95 76.6347 241.971 108.047 241.971C109.268 241.971 110.486 241.985 111.7 242.012C141.568 242.676 169.434 251.459 193.178 266.24Z" fill="#1F2A5E"/>
<path fill-rule="evenodd" clip-rule="evenodd" d="M276.524 314.634C275.038 314.587 273.547 314.563 272.05 314.563C242.887 314.563 215.851 323.667 193.628 339.188C171.405 323.667 144.369 314.562 115.206 314.562C112.069 314.562 108.957 314.668 105.872 314.875C130.665 299.344 159.98 290.365 191.393 290.365C192.37 290.365 193.344 290.374 194.316 290.391C224.46 290.928 252.587 299.733 276.524 314.634Z" fill="#1F2A5E"/>
<path fill-rule="evenodd" clip-rule="evenodd" d="M365.246 363.028C363.761 362.981 362.27 362.957 360.773 362.957C331.61 362.957 304.574 372.061 282.351 387.582C260.128 372.061 233.092 362.957 203.929 362.957C200.792 362.957 197.68 363.062 194.595 363.269C219.387 347.738 248.703 338.76 280.116 338.76C281.092 338.76 282.067 338.768 283.039 338.786C313.183 339.322 341.309 348.127 365.246 363.028Z" fill="#1F2A5E"/>
<path fill-rule="evenodd" clip-rule="evenodd" d="M459.346 411.423C457.861 411.375 456.37 411.351 454.873 411.351C425.71 411.351 398.674 420.455 376.451 435.977C354.228 420.455 327.192 411.351 298.029 411.351C294.892 411.351 291.78 411.456 288.695 411.664C313.487 396.133 342.803 387.154 374.216 387.154C375.192 387.154 376.167 387.163 377.139 387.18C407.283 387.716 435.409 396.521 459.346 411.423Z" fill="#1F2A5E"/>
<path fill-rule="evenodd" clip-rule="evenodd" d="M378.689 459.817C377.204 459.769 375.713 459.745 374.216 459.745C345.053 459.745 318.016 468.849 295.794 484.371C273.571 468.849 246.534 459.745 217.372 459.745C214.235 459.745 211.122 459.851 208.038 460.058C232.83 444.527 262.146 435.548 293.559 435.548C294.535 435.548 295.51 435.557 296.482 435.574C326.626 436.111 354.752 444.915 378.689 459.817Z" fill="#1F2A5E"/>
<path fill-rule="evenodd" clip-rule="evenodd" d="M292.655 508.211C291.17 508.163 289.678 508.139 288.181 508.139C259.019 508.139 231.982 517.244 209.759 532.765C187.537 517.244 160.5 508.139 131.337 508.139C128.201 508.139 125.088 508.245 122.004 508.452C146.796 492.921 176.112 483.942 207.524 483.942C208.501 483.942 209.476 483.951 210.448 483.968C240.592 484.505 268.718 493.31 292.655 508.211Z" fill="#1F2A5E"/>
<path fill-rule="evenodd" clip-rule="evenodd" d="M448.592 217.846C447.107 217.798 445.615 217.774 444.119 217.774C414.956 217.774 387.919 226.878 365.696 242.4C343.474 226.878 316.437 217.774 287.274 217.774C284.138 217.774 281.025 217.879 277.941 218.087C302.733 202.556 332.049 193.577 363.461 193.577C364.438 193.577 365.413 193.586 366.385 193.603C396.529 194.139 424.655 202.944 448.592 217.846Z" fill="#1F2A5E"/>
<path fill-rule="evenodd" clip-rule="evenodd" d="M1050.83 266.24C1049.35 266.192 1047.85 266.168 1046.36 266.168C1017.2 266.168 990.159 275.273 967.936 290.794C945.713 275.273 918.677 266.168 889.514 266.168C886.377 266.168 883.265 266.274 880.18 266.481C904.973 250.95 934.288 241.971 965.701 241.971C966.678 241.971 967.652 241.98 968.624 241.997C998.768 242.534 1026.89 251.338 1050.83 266.24Z" fill="#1F2A5E"/>
<path fill-rule="evenodd" clip-rule="evenodd" d="M1134.18 314.634C1132.69 314.587 1131.2 314.563 1129.7 314.563C1100.54 314.563 1073.5 323.667 1051.28 339.188C1029.06 323.667 1002.02 314.563 972.86 314.562C969.723 314.562 966.61 314.668 963.526 314.875C988.318 299.344 1017.63 290.365 1049.05 290.365C1050.02 290.365 1051 290.374 1051.97 290.391C1082.11 290.928 1110.24 299.733 1134.18 314.634Z" fill="#1F2A5E"/>
<path fill-rule="evenodd" clip-rule="evenodd" d="M1222.9 363.028C1221.41 362.981 1219.92 362.957 1218.43 362.957C1189.26 362.957 1162.23 372.061 1140 387.582C1117.78 372.061 1090.75 362.957 1061.58 362.957C1058.45 362.957 1055.33 363.062 1052.25 363.269C1077.04 347.738 1106.36 338.76 1137.77 338.76C1138.75 338.76 1139.72 338.768 1140.69 338.786C1170.84 339.322 1198.96 348.127 1222.9 363.028Z" fill="#1F2A5E"/>
<path fill-rule="evenodd" clip-rule="evenodd" d="M1317 411.423C1315.51 411.375 1314.02 411.351 1312.53 411.351C1283.36 411.351 1256.33 420.455 1234.1 435.977C1211.88 420.455 1184.84 411.351 1155.68 411.351C1152.55 411.351 1149.43 411.456 1146.35 411.664C1171.14 396.133 1200.46 387.154 1231.87 387.154C1232.85 387.154 1233.82 387.163 1234.79 387.18C1264.94 387.716 1293.06 396.521 1317 411.423Z" fill="#1F2A5E"/>
<path fill-rule="evenodd" clip-rule="evenodd" d="M1236.34 459.817C1234.86 459.769 1233.37 459.745 1231.87 459.745C1202.71 459.745 1175.67 468.85 1153.45 484.371C1131.22 468.849 1104.19 459.745 1075.03 459.745C1071.89 459.745 1068.78 459.851 1065.69 460.058C1090.48 444.527 1119.8 435.548 1151.21 435.548C1152.19 435.548 1153.16 435.557 1154.14 435.574C1184.28 436.111 1212.41 444.915 1236.34 459.817Z" fill="#1F2A5E"/>
<path fill-rule="evenodd" clip-rule="evenodd" d="M1150.31 508.211C1148.82 508.164 1147.33 508.14 1145.84 508.14C1116.67 508.14 1089.64 517.244 1067.41 532.765C1045.19 517.244 1018.15 508.139 988.991 508.139C985.854 508.139 982.742 508.245 979.657 508.452C1004.45 492.921 1033.77 483.942 1065.18 483.942C1066.15 483.942 1067.13 483.951 1068.1 483.968C1098.25 484.505 1126.37 493.31 1150.31 508.211Z" fill="#1F2A5E"/>
<path fill-rule="evenodd" clip-rule="evenodd" d="M365.246 266.24C363.761 266.192 362.27 266.168 360.773 266.168C331.61 266.168 304.574 275.273 282.351 290.794C260.128 275.272 233.092 266.168 203.929 266.168C200.792 266.168 197.68 266.274 194.595 266.481C219.387 250.95 248.703 241.971 280.116 241.971C281.092 241.971 282.067 241.98 283.039 241.997C313.183 242.534 341.309 251.338 365.246 266.24Z" fill="#1F2A5E"/>
<path fill-rule="evenodd" clip-rule="evenodd" d="M448.592 314.634C447.107 314.587 445.615 314.563 444.119 314.563C414.956 314.563 387.919 323.667 365.696 339.188C343.474 323.667 316.437 314.562 287.274 314.562C284.138 314.562 281.025 314.668 277.941 314.875C302.733 299.344 332.049 290.365 363.461 290.365C364.438 290.365 365.413 290.374 366.385 290.391C396.529 290.928 424.655 299.733 448.592 314.634Z" fill="#1F2A5E"/>
<path fill-rule="evenodd" clip-rule="evenodd" d="M537.315 363.028C535.83 362.981 534.338 362.957 532.841 362.957C503.678 362.957 476.642 372.061 454.419 387.582C432.196 372.061 405.16 362.957 375.997 362.957C372.86 362.957 369.748 363.062 366.664 363.269C391.456 347.738 420.772 338.76 452.184 338.76C453.161 338.76 454.135 338.768 455.108 338.786C485.252 339.322 513.378 348.127 537.315 363.028Z" fill="#1F2A5E"/>
<path fill-rule="evenodd" clip-rule="evenodd" d="M631.415 411.423C629.929 411.375 628.438 411.351 626.941 411.351C597.778 411.351 570.742 420.455 548.519 435.977C526.296 420.455 499.26 411.351 470.097 411.351C466.96 411.351 463.848 411.456 460.764 411.664C485.556 396.133 514.871 387.154 546.284 387.154C547.261 387.154 548.235 387.163 549.208 387.18C579.352 387.716 607.478 396.521 631.415 411.423Z" fill="#1F2A5E"/>
<path fill-rule="evenodd" clip-rule="evenodd" d="M550.758 459.817C549.272 459.769 547.781 459.745 546.284 459.745C517.121 459.745 490.085 468.849 467.862 484.371C445.639 468.849 418.603 459.745 389.44 459.745C386.303 459.745 383.191 459.851 380.106 460.058C404.899 444.527 434.214 435.548 465.627 435.548C466.604 435.548 467.578 435.557 468.551 435.574C498.694 436.111 526.821 444.915 550.758 459.817Z" fill="#1F2A5E"/>
<path fill-rule="evenodd" clip-rule="evenodd" d="M464.723 508.211C463.238 508.163 461.747 508.14 460.25 508.14C431.087 508.139 404.051 517.244 381.828 532.765C359.605 517.244 332.569 508.139 303.406 508.139C300.269 508.139 297.157 508.245 294.072 508.452C318.864 492.921 348.18 483.942 379.593 483.942C380.569 483.942 381.544 483.951 382.516 483.968C412.66 484.505 440.786 493.31 464.723 508.211Z" fill="#1F2A5E"/>
<path fill-rule="evenodd" clip-rule="evenodd" d="M537.315 266.24C535.83 266.192 534.338 266.168 532.841 266.168C503.678 266.168 476.642 275.273 454.419 290.794C432.196 275.272 405.16 266.168 375.997 266.168C372.86 266.168 369.748 266.274 366.664 266.481C391.456 250.95 420.772 241.971 452.184 241.971C453.161 241.971 454.135 241.98 455.108 241.997C485.252 242.534 513.378 251.338 537.315 266.24Z" fill="#1F2A5E"/>
<path fill-rule="evenodd" clip-rule="evenodd" d="M620.66 314.634C619.175 314.587 617.684 314.563 616.187 314.563C587.024 314.563 559.988 323.667 537.765 339.188C515.542 323.667 488.506 314.562 459.343 314.562C456.206 314.562 453.094 314.668 450.009 314.875C474.801 299.344 504.117 290.365 535.53 290.365C536.506 290.365 537.481 290.374 538.453 290.391C568.597 290.928 596.723 299.733 620.66 314.634Z" fill="#1F2A5E"/>
<path fill-rule="evenodd" clip-rule="evenodd" d="M709.383 363.028C707.898 362.981 706.407 362.957 704.91 362.957C675.747 362.957 648.71 372.061 626.488 387.582C604.265 372.061 577.228 362.957 548.066 362.957C544.929 362.957 541.816 363.062 538.732 363.269C563.524 347.738 592.84 338.76 624.253 338.76C625.229 338.76 626.204 338.768 627.176 338.786C657.32 339.322 685.446 348.127 709.383 363.028Z" fill="#1F2A5E"/>
<path fill-rule="evenodd" clip-rule="evenodd" d="M803.483 411.423C801.998 411.375 800.507 411.351 799.01 411.351C769.847 411.351 742.81 420.455 720.588 435.977C698.365 420.455 671.328 411.351 642.166 411.351C639.029 411.351 635.916 411.456 632.832 411.664C657.624 396.133 686.94 387.154 718.353 387.154C719.329 387.154 720.304 387.163 721.276 387.18C751.42 387.716 779.546 396.521 803.483 411.423Z" fill="#1F2A5E"/>
<path fill-rule="evenodd" clip-rule="evenodd" d="M722.826 459.817C721.341 459.769 719.849 459.745 718.353 459.745C689.19 459.745 662.153 468.849 639.93 484.371C617.708 468.849 590.671 459.745 561.508 459.745C558.372 459.745 555.259 459.851 552.175 460.058C576.967 444.527 606.283 435.548 637.695 435.548C638.672 435.548 639.647 435.557 640.619 435.574C670.763 436.111 698.889 444.915 722.826 459.817Z" fill="#1F2A5E"/>
<path fill-rule="evenodd" clip-rule="evenodd" d="M636.792 508.211C635.307 508.163 633.815 508.14 632.318 508.14C603.156 508.139 576.119 517.244 553.896 532.765C531.673 517.244 504.637 508.139 475.474 508.139C472.337 508.139 469.225 508.245 466.141 508.452C490.933 492.921 520.249 483.942 551.661 483.942C552.638 483.942 553.612 483.951 554.585 483.968C584.729 484.505 612.855 493.31 636.792 508.211Z" fill="#1F2A5E"/>
<path fill-rule="evenodd" clip-rule="evenodd" d="M187.801 72.663C186.316 72.6154 184.824 72.5914 183.327 72.5914C154.165 72.5914 127.128 81.6956 104.905 97.2168C82.6826 81.6956 55.6463 72.5914 26.4835 72.5914C23.3465 72.5914 20.2341 72.6967 17.1497 72.904C41.9418 57.373 71.2575 48.3943 102.67 48.3943C103.891 48.3943 105.108 48.4078 106.323 48.4348C136.191 49.099 164.057 57.8816 187.801 72.663Z" fill="#1F2A5E"/>
<path fill-rule="evenodd" clip-rule="evenodd" d="M790.04 121.057C788.555 121.01 787.064 120.986 785.567 120.986C756.404 120.986 729.368 130.09 707.145 145.611C684.922 130.09 657.885 120.986 628.723 120.986C625.586 120.986 622.474 121.091 619.389 121.298C644.181 105.767 673.497 96.7884 704.91 96.7884C705.886 96.7884 706.861 96.7971 707.833 96.8144C737.977 97.3508 766.103 106.156 790.04 121.057Z" fill="#1F2A5E"/>
<path fill-rule="evenodd" clip-rule="evenodd" d="M15.7325 72.6629C14.2472 72.6153 12.7558 72.5913 11.2589 72.5913C-17.9039 72.5913 -44.9403 81.6955 -67.1631 97.2168C-89.386 81.6955 -116.422 72.5913 -145.585 72.5912C-148.722 72.5912 -151.834 72.6966 -154.919 72.9039C-130.127 57.3729 -100.811 48.3942 -69.3982 48.3942C-68.4216 48.3942 -67.4471 48.4028 -66.4746 48.4201C-36.3307 48.9566 -8.20449 57.7614 15.7325 72.6629Z" fill="#1F2A5E"/>
<path fill-rule="evenodd" clip-rule="evenodd" d="M617.972 121.057C616.487 121.01 614.995 120.986 613.498 120.986C584.335 120.986 557.299 130.09 535.076 145.611C512.853 130.09 485.817 120.986 456.654 120.986C453.517 120.986 450.405 121.091 447.321 121.298C472.113 105.767 501.428 96.7884 532.841 96.7884C533.818 96.7884 534.792 96.7971 535.765 96.8144C565.909 97.3508 594.035 106.156 617.972 121.057Z" fill="#1F2A5E"/>
</g>
<defs>
<clipPath id="clip0_2519_22910">
<rect width="523" height="1317" fill="white" transform="translate(1317 6.10352e-05) rotate(90)"/>
</clipPath>
</defs>
</svg>
