<svg width="793" height="202" viewBox="0 0 793 202" fill="none" xmlns="http://www.w3.org/2000/svg">
<g clip-path="url(#clip0_2619_23772)">
<path fill-rule="evenodd" clip-rule="evenodd" d="M140.404 85.0809C126.972 63.6405 103.137 49.3831 75.9707 49.3831L75.9707 98.768C97.9021 98.768 117.28 109.7 128.953 126.413C117.28 143.125 97.9022 154.057 75.9708 154.057L75.9708 201.335C103.213 201.335 127.107 186.997 140.517 165.455C140.517 165.456 140.517 165.457 140.517 165.457C146.913 155.183 150.925 143.27 151.777 130.492C150.924 143.269 146.913 155.182 140.517 165.455C140.54 164.756 140.551 164.053 140.551 163.348C140.551 149.613 136.263 136.879 128.953 126.413C136.263 115.946 140.551 103.212 140.551 89.4768C140.551 87.9994 140.501 86.5336 140.404 85.0809ZM151.899 128.108C151.931 127.196 151.947 126.28 151.947 125.36C151.947 110.565 147.719 96.7577 140.404 85.0809C140.404 85.0802 140.404 85.0795 140.404 85.0788C147.719 96.7556 151.948 110.563 151.948 125.358C151.948 126.279 151.931 127.195 151.899 128.108Z" fill="#15C6F6"/>
<path fill-rule="evenodd" clip-rule="evenodd" d="M140.517 165.455C140.54 164.756 140.551 164.053 140.551 163.348C140.551 149.613 136.263 136.879 128.953 126.412C136.263 115.946 140.551 103.212 140.551 89.4766C140.551 87.9992 140.501 86.5334 140.404 85.0807C147.719 96.7575 151.948 110.565 151.948 125.36C151.948 125.82 151.943 126.279 151.935 126.737C151.683 140.934 147.536 154.181 140.517 165.455Z" fill="#00A4D0"/>
<path fill-rule="evenodd" clip-rule="evenodd" d="M11.5674 116.254C24.9987 137.694 48.8346 151.952 76.0005 151.952L76.0005 102.567C54.0691 102.567 34.691 91.6345 23.0185 74.9222C34.691 58.2099 54.0691 47.2777 76.0004 47.2777L76.0005 -3.05176e-05C48.7579 -3.28992e-05 24.8642 14.338 11.454 35.8794C11.454 35.8788 11.454 35.8782 11.454 35.8775C4.66168 46.7883 0.5588 59.5472 0.0724709 73.2269C0.559113 59.5479 4.66193 46.7897 11.454 35.8794C11.4315 36.579 11.4202 37.2814 11.4202 37.9865C11.4202 51.7218 15.7082 64.4555 23.0185 74.9222C15.7082 85.3889 11.4202 98.1227 11.4202 111.858C11.4202 113.335 11.4698 114.801 11.5674 116.254ZM0.0238943 75.8022C0.0237646 75.8598 0.0237035 75.9173 0.0237035 75.9749C0.0237022 90.7698 4.25254 104.577 11.5674 116.254C11.5675 116.255 11.5675 116.255 11.5676 116.256C4.25256 104.579 0.0236412 90.7718 0.0236425 75.9767C0.0236425 75.9186 0.0237646 75.8604 0.0238943 75.8022Z" fill="white"/>
<path fill-rule="evenodd" clip-rule="evenodd" d="M11.4302 35.8816C11.4078 36.5811 11.3965 37.2836 11.3965 37.9886C11.3965 51.7239 15.6844 64.4577 22.9948 74.9243C15.6844 85.391 11.3965 98.1247 11.3965 111.86C11.3965 113.337 11.4461 114.803 11.5437 116.256C4.2288 104.579 -5.30852e-05 90.7719 -5.17918e-05 75.977C-5.17415e-05 75.402 0.00633411 74.8286 0.019039 74.2567C0.331901 60.1891 4.46838 47.0646 11.4302 35.8816Z" fill="#EFEFEF"/>
</g>
<path d="M742.575 118.16V106.079H774.084L772.574 108.697C772.574 108.428 772.574 108.143 772.574 107.841C772.574 107.505 772.574 107.22 772.574 106.985C772.574 105.844 772.239 104.67 771.568 103.462C770.93 102.22 769.873 101.18 768.397 100.341C766.954 99.5023 765.007 99.0829 762.558 99.0829C760.175 99.0829 758.179 99.5862 756.568 100.593C754.957 101.6 753.749 103.093 752.944 105.073C752.139 107.019 751.736 109.401 751.736 112.22C751.736 115.173 752.122 117.69 752.894 119.77C753.665 121.851 754.89 123.445 756.568 124.552C758.246 125.626 760.444 126.163 763.162 126.163C764.772 126.163 766.148 126.045 767.289 125.81C768.43 125.575 769.336 125.273 770.007 124.904C770.712 124.535 771.232 124.133 771.568 123.696C771.937 123.26 772.155 122.841 772.222 122.438H792.255C792.02 124.787 791.164 127.052 789.688 129.233C788.245 131.414 786.248 133.377 783.698 135.122C781.148 136.833 778.078 138.193 774.487 139.199C770.896 140.172 766.836 140.659 762.306 140.659C756.031 140.659 750.595 139.484 745.998 137.136C741.401 134.753 737.86 131.465 735.377 127.27C732.894 123.042 731.653 118.193 731.653 112.723C731.653 107.12 732.928 102.22 735.478 98.0259C738.028 93.8313 741.602 90.5764 746.199 88.261C750.83 85.9457 756.199 84.788 762.306 84.788C768.615 84.788 774.051 85.9792 778.614 88.3617C783.212 90.7106 786.752 94.0662 789.235 98.4285C791.718 102.757 792.96 107.908 792.96 113.881C792.96 114.888 792.943 115.743 792.909 116.448C792.876 117.153 792.825 117.723 792.758 118.16H742.575Z" fill="white"/>
<path d="M701.843 140.609C697.581 140.609 693.706 139.417 690.216 137.035C686.759 134.652 684.008 131.448 681.961 127.421C679.914 123.361 678.891 118.864 678.891 113.931C678.891 113.764 678.891 113.596 678.891 113.428C678.891 113.26 678.891 113.093 678.891 112.925L686.038 112.774C686.038 112.874 686.038 112.992 686.038 113.126C686.038 113.227 686.038 113.327 686.038 113.428C686.038 115.643 686.525 117.505 687.498 119.015C688.504 120.525 689.763 121.666 691.273 122.438C692.816 123.176 694.393 123.545 696.004 123.545C698.554 123.545 700.887 122.656 703.001 120.878C705.115 119.099 706.172 116.23 706.172 112.27C706.172 108.311 705.115 105.492 703.001 103.814C700.92 102.103 698.588 101.247 696.004 101.247C694.427 101.247 692.867 101.616 691.323 102.355C689.813 103.059 688.555 104.133 687.548 105.576C686.541 107.019 686.038 108.864 686.038 111.113L678.891 110.609C678.891 105.643 679.914 101.23 681.961 97.3715C684.008 93.479 686.759 90.4254 690.216 88.2106C693.706 85.9624 697.581 84.8383 701.843 84.8383C706.172 84.8383 710.249 85.8953 714.074 88.0093C717.933 90.1233 721.071 93.2273 723.487 97.3211C725.903 101.381 727.111 106.365 727.111 112.27C727.111 118.512 725.936 123.73 723.587 127.924C721.238 132.119 718.151 135.29 714.326 137.437C710.5 139.552 706.339 140.609 701.843 140.609ZM665.703 139.35V60.6779H686.038V139.35H665.703Z" fill="white"/>
<path d="M636.916 139.35V85.8952H656.999V139.35H636.916ZM646.932 79.6035C643.946 79.6035 641.328 78.8317 639.08 77.2881C636.866 75.7445 635.758 73.5466 635.758 70.6943C635.758 67.8085 636.866 65.6106 639.08 64.1005C641.328 62.5569 643.946 61.7852 646.932 61.7852C649.919 61.7852 652.519 62.5569 654.734 64.1005C656.982 65.6106 658.107 67.8085 658.107 70.6943C658.107 73.5801 656.982 75.7948 654.734 77.3384C652.519 78.8484 649.919 79.6035 646.932 79.6035Z" fill="white"/>
<path d="M588.137 139.35V85.8953H608.472V105.677L604.999 102.959C605.503 100.106 606.291 97.5561 607.365 95.3078C608.439 93.0595 609.781 91.1636 611.392 89.62C613.036 88.0429 614.915 86.8517 617.029 86.0463C619.177 85.2074 621.559 84.788 624.177 84.788C626.358 84.788 628.002 84.939 629.109 85.241C630.25 85.5094 630.955 85.7275 631.223 85.8953L628.455 103.613C628.153 103.445 627.482 103.193 626.442 102.858C625.401 102.489 624.143 102.304 622.667 102.304C620.049 102.304 617.834 102.724 616.022 103.563C614.21 104.368 612.751 105.475 611.643 106.885C610.536 108.26 609.731 109.821 609.227 111.566C608.724 113.277 608.472 115.022 608.472 116.801V139.35H588.137Z" fill="white"/>
<path d="M552.124 140.659C545.715 140.659 540.212 139.434 535.614 136.985C531.017 134.535 527.494 131.179 525.044 126.918C522.595 122.656 521.37 117.807 521.37 112.371C521.37 106.901 522.595 102.103 525.044 97.9755C527.494 93.8481 531.017 90.6267 535.614 88.3114C540.212 85.9624 545.715 84.788 552.124 84.788C556.855 84.788 561.016 85.4591 564.607 86.8013C568.197 88.1436 571.184 89.9221 573.566 92.1368C575.982 94.3179 577.794 96.7172 579.003 99.3345C580.244 101.952 580.865 104.553 580.865 107.136C580.865 107.203 580.865 107.287 580.865 107.388C580.865 107.455 580.865 107.522 580.865 107.589H560.782C560.782 107.388 560.765 107.203 560.731 107.036C560.731 106.868 560.698 106.7 560.631 106.532C560.362 105.66 559.943 104.754 559.372 103.814C558.802 102.875 557.929 102.086 556.755 101.449C555.614 100.777 554.003 100.442 551.923 100.442C549.876 100.442 548.097 100.912 546.587 101.851C545.111 102.791 543.97 104.15 543.165 105.928C542.359 107.707 541.957 109.854 541.957 112.371C541.957 114.821 542.359 117.002 543.165 118.915C543.97 120.827 545.111 122.32 546.587 123.394C548.097 124.468 549.876 125.005 551.923 125.005C553.936 125.005 555.547 124.703 556.755 124.099C557.996 123.495 558.919 122.673 559.523 121.633C560.161 120.559 560.563 119.351 560.731 118.009H580.865C580.865 120.559 580.244 123.176 579.003 125.861C577.794 128.512 575.982 130.961 573.566 133.209C571.184 135.424 568.197 137.219 564.607 138.595C561.016 139.971 556.855 140.659 552.124 140.659Z" fill="white"/>
<path d="M486.293 140.659C480.79 140.659 475.857 139.786 471.495 138.041C467.133 136.263 463.676 133.629 461.126 130.139C458.609 126.649 457.351 122.32 457.351 117.153C457.351 116.717 457.351 116.28 457.351 115.844C457.351 115.408 457.351 114.972 457.351 114.535H477.636C477.636 114.905 477.636 115.274 477.636 115.643C477.636 116.012 477.636 116.381 477.636 116.75C477.636 119.099 478.357 121.062 479.8 122.639C481.277 124.216 483.508 125.005 486.495 125.005C489.38 125.005 491.645 124.585 493.29 123.747C494.967 122.874 495.806 121.465 495.806 119.518C495.806 118.076 495.018 116.733 493.441 115.492C491.897 114.25 489.8 113.076 487.149 111.968C484.532 110.861 481.612 109.804 478.391 108.797C474.901 107.69 471.579 106.197 468.425 104.318C465.304 102.438 462.754 100.006 460.774 97.0191C458.794 93.999 457.804 90.2575 457.804 85.7946C457.804 81.1974 459.079 77.2713 461.629 74.0164C464.18 70.7279 467.602 68.2112 471.898 66.4663C476.226 64.7213 481.025 63.8489 486.293 63.8489C491.763 63.8489 496.645 64.7046 500.94 66.4159C505.269 68.1273 508.692 70.644 511.209 73.966C513.725 77.2881 514.984 81.3987 514.984 86.2979C514.984 86.7342 514.984 87.1536 514.984 87.5563C514.984 87.9589 514.984 88.3784 514.984 88.8146H494.699C494.699 88.6468 494.699 88.3952 494.699 88.0596C494.699 87.6905 494.699 87.422 494.699 87.2543C494.699 85.0731 494.078 83.2275 492.837 81.7175C491.629 80.2075 489.531 79.4525 486.545 79.4525C483.592 79.4525 481.31 79.9894 479.699 81.0632C478.122 82.137 477.334 83.6973 477.334 85.7442C477.334 87.1872 478.005 88.4623 479.347 89.5696C480.689 90.6434 482.535 91.6501 484.884 92.5897C487.266 93.5293 489.951 94.5359 492.937 95.6097C497.434 97.1869 501.377 98.9318 504.766 100.844C508.155 102.724 510.789 105.089 512.668 107.942C514.581 110.794 515.537 114.451 515.537 118.914C515.537 123.579 514.279 127.538 511.762 130.793C509.246 134.015 505.773 136.464 501.343 138.142C496.947 139.82 491.931 140.659 486.293 140.659Z" fill="white"/>
<path d="M401.148 118.16V106.079H432.657L431.147 108.697C431.147 108.428 431.147 108.143 431.147 107.841C431.147 107.505 431.147 107.22 431.147 106.985C431.147 105.844 430.812 104.67 430.141 103.462C429.503 102.22 428.446 101.18 426.97 100.341C425.527 99.5023 423.58 99.0829 421.131 99.0829C418.748 99.0829 416.752 99.5862 415.141 100.593C413.53 101.6 412.322 103.093 411.517 105.073C410.712 107.019 410.309 109.401 410.309 112.22C410.309 115.173 410.695 117.69 411.467 119.77C412.239 121.851 413.463 123.445 415.141 124.552C416.819 125.626 419.017 126.163 421.735 126.163C423.346 126.163 424.721 126.045 425.862 125.81C427.003 125.575 427.909 125.273 428.58 124.904C429.285 124.535 429.805 124.133 430.141 123.696C430.51 123.26 430.728 122.841 430.795 122.438H450.828C450.593 124.787 449.737 127.052 448.261 129.233C446.818 131.414 444.821 133.377 442.271 135.122C439.721 136.833 436.651 138.193 433.06 139.199C429.47 140.172 425.409 140.659 420.879 140.659C414.604 140.659 409.168 139.484 404.571 137.136C399.974 134.753 396.434 131.465 393.95 127.27C391.467 123.042 390.226 118.193 390.226 112.723C390.226 107.12 391.501 102.22 394.051 98.0259C396.601 93.8313 400.175 90.5764 404.772 88.261C409.403 85.9457 414.772 84.788 420.879 84.788C427.188 84.788 432.624 85.9792 437.187 88.3617C441.785 90.7106 445.325 94.0662 447.808 98.4285C450.291 102.757 451.533 107.908 451.533 113.881C451.533 114.888 451.516 115.743 451.482 116.448C451.449 117.153 451.399 117.723 451.331 118.16H401.148Z" fill="white"/>
<path d="M359.282 140.659C356.128 140.659 353.007 140.273 349.92 139.501C346.833 138.763 344.014 137.639 341.464 136.129C338.947 134.585 336.917 132.656 335.373 130.34C333.863 128.025 333.108 125.307 333.108 122.186C333.108 122.119 333.108 122.035 333.108 121.935C333.108 121.834 333.108 121.75 333.108 121.683H353.192C353.192 121.75 353.192 121.834 353.192 121.935C353.192 122.035 353.192 122.119 353.192 122.186C353.192 123.596 353.796 124.586 355.004 125.156C356.212 125.726 357.839 126.012 359.886 126.012C360.624 126.012 361.48 125.928 362.453 125.76C363.426 125.559 364.265 125.24 364.97 124.804C365.708 124.334 366.077 123.73 366.077 122.992C366.077 121.884 365.305 121.112 363.762 120.676C362.252 120.206 359.601 119.67 355.809 119.066C353.527 118.696 351.111 118.16 348.561 117.455C346.011 116.717 343.611 115.727 341.363 114.485C339.115 113.21 337.286 111.599 335.877 109.653C334.467 107.707 333.763 105.308 333.763 102.455C333.763 98.5628 334.937 95.3078 337.286 92.6904C339.668 90.0731 342.806 88.11 346.699 86.8013C350.625 85.4591 354.903 84.788 359.534 84.788C363.93 84.788 368.057 85.543 371.916 87.053C375.775 88.5295 378.912 90.6435 381.328 93.3951C383.744 96.1467 384.952 99.4017 384.952 103.16C384.952 103.227 384.952 103.311 384.952 103.412C384.952 103.512 384.952 103.596 384.952 103.663H365.07C365.07 103.596 365.07 103.512 365.07 103.412C365.07 103.311 365.07 103.227 365.07 103.16C365.07 102.22 364.768 101.482 364.164 100.945C363.594 100.375 362.873 99.9553 362 99.6869C361.128 99.4184 360.255 99.2842 359.383 99.2842C358.712 99.2842 357.906 99.3681 356.967 99.5359C356.061 99.6701 355.272 99.9386 354.601 100.341C353.93 100.744 353.594 101.331 353.594 102.103C353.594 102.774 354.014 103.344 354.853 103.814C355.725 104.284 356.9 104.687 358.376 105.022C359.886 105.324 361.564 105.61 363.409 105.878C365.322 106.146 367.537 106.583 370.054 107.187C372.57 107.791 375.02 108.697 377.402 109.905C379.785 111.079 381.748 112.69 383.291 114.737C384.869 116.75 385.657 119.334 385.657 122.488C385.657 125.877 384.869 128.73 383.291 131.045C381.748 133.36 379.667 135.223 377.05 136.632C374.466 138.042 371.631 139.065 368.544 139.703C365.456 140.34 362.369 140.659 359.282 140.659Z" fill="white"/>
<path d="M289.154 140.558C285.329 140.558 281.906 139.954 278.886 138.746C275.866 137.505 273.483 135.726 271.738 133.411C269.993 131.062 269.121 128.21 269.121 124.854C269.121 120.894 270.245 117.707 272.493 115.29C274.775 112.874 277.678 111.046 281.201 109.804C284.758 108.562 288.433 107.774 292.224 107.438C297.627 106.935 301.268 106.499 303.147 106.13C305.026 105.761 305.966 105.106 305.966 104.167C305.966 104.133 305.966 104.116 305.966 104.116C305.966 102.875 305.211 101.818 303.701 100.945C302.224 100.039 300.244 99.5862 297.761 99.5862C295.077 99.5862 293.08 100.09 291.771 101.096C290.463 102.069 289.808 103.496 289.808 105.375H269.826C269.826 100.878 271.084 97.1031 273.601 94.0495C276.117 90.9959 279.49 88.6973 283.718 87.1537C287.98 85.5765 292.711 84.788 297.912 84.788C302.845 84.788 307.459 85.5262 311.754 87.0027C316.083 88.4791 319.589 90.7442 322.274 93.7978C324.958 96.8178 326.301 100.694 326.301 105.425C326.301 106.13 326.301 106.834 326.301 107.539C326.301 108.244 326.301 108.948 326.301 109.653V126.213C326.301 127.689 326.334 129.116 326.401 130.491C326.468 131.867 326.67 133.142 327.005 134.317C327.374 135.558 327.861 136.632 328.465 137.538C329.069 138.411 329.556 139.015 329.925 139.35H310.093C309.791 139.048 309.355 138.495 308.784 137.689C308.214 136.884 307.744 135.961 307.375 134.921C306.872 133.411 306.502 132.001 306.268 130.693C306.066 129.35 305.966 127.723 305.966 125.81L310.395 128.881C309.489 131.33 307.945 133.428 305.764 135.172C303.617 136.917 301.083 138.26 298.164 139.199C295.278 140.105 292.275 140.558 289.154 140.558ZM295.194 126.163C296.939 126.163 298.65 125.777 300.328 125.005C302.04 124.233 303.466 122.958 304.607 121.18C305.747 119.368 306.318 116.918 306.318 113.831V111.918L311.502 116.096C309.288 116.868 306.821 117.522 304.103 118.059C301.385 118.562 298.785 118.948 296.301 119.217C293.986 119.451 292.258 119.837 291.117 120.374C290.01 120.878 289.456 121.7 289.456 122.841C289.456 123.982 289.959 124.82 290.966 125.357C291.973 125.894 293.382 126.163 295.194 126.163Z" fill="white"/>
<path d="M262.842 111.314C262.842 114.703 262.187 118.126 260.879 121.582C259.604 125.005 257.641 128.159 254.99 131.045C252.372 133.931 249.033 136.263 244.973 138.041C240.946 139.786 236.165 140.659 230.628 140.659C223.346 140.659 217.105 139.031 211.904 135.776C206.736 132.488 202.776 127.958 200.025 122.186C197.307 116.415 195.948 109.754 195.948 102.204C195.948 94.6534 197.307 88.0093 200.025 82.2712C202.776 76.4995 206.736 71.9862 211.904 68.7313C217.105 65.4763 223.346 63.8489 230.628 63.8489C236.668 63.8489 241.819 64.8723 246.08 66.9193C250.376 68.9662 253.815 71.6507 256.399 74.9727C259.016 78.2948 260.828 81.8517 261.835 85.6436C262.506 88.2274 262.842 90.7273 262.842 93.1434H242.456C242.456 92.0696 242.389 91.13 242.255 90.3247C241.953 88.1435 241.299 86.2476 240.292 84.6369C239.285 83.0262 237.96 81.7846 236.316 80.9122C234.705 80.0061 232.809 79.5531 230.628 79.5531C228.01 79.5531 225.645 80.3249 223.531 81.8685C221.417 83.4121 219.722 85.8449 218.447 89.167C217.205 92.489 216.585 96.8345 216.585 102.204C216.585 107.539 217.205 111.884 218.447 115.24C219.722 118.596 221.417 121.062 223.531 122.639C225.645 124.216 228.01 125.005 230.628 125.005C232.507 125.005 234.168 124.669 235.611 123.998C237.087 123.294 238.329 122.32 239.336 121.079C240.342 119.837 241.114 118.394 241.651 116.75C242.188 115.072 242.456 113.26 242.456 111.314H262.842Z" fill="white"/>
<defs>
<clipPath id="clip0_2619_23772">
<rect width="151.948" height="201.337" fill="white"/>
</clipPath>
</defs>
</svg>
