<svg width="397" height="101" viewBox="0 0 397 101" fill="none" xmlns="http://www.w3.org/2000/svg">
<g clip-path="url(#clip0_2377_28107)">
<path fill-rule="evenodd" clip-rule="evenodd" d="M70.2019 42.5405C63.4862 31.8203 51.5683 24.6916 37.9854 24.6916L37.9854 49.384C48.9511 49.384 58.6401 54.8501 64.4763 63.2063C58.6401 71.5624 48.9511 77.0286 37.9854 77.0286V100.667C51.6066 100.667 63.5535 93.4984 70.2586 82.7277C70.2586 82.728 70.2586 82.7283 70.2586 82.7286C73.6548 77.2732 75.7062 70.8938 75.9494 64.0539C75.7061 70.8934 73.6546 77.2725 70.2586 82.7277C70.2698 82.3779 70.2755 82.0267 70.2755 81.6742C70.2755 74.8065 68.1315 68.4396 64.4763 63.2063C68.1315 57.973 70.2755 51.6061 70.2755 44.7384C70.2755 43.9997 70.2507 43.2668 70.2019 42.5405ZM75.9737 62.68C75.9737 62.6797 75.9738 62.6794 75.9738 62.679C75.9738 55.2815 73.8593 48.3778 70.2018 42.5394C70.2018 42.5398 70.2018 42.5401 70.2019 42.5405C73.8593 48.3788 75.9737 55.2825 75.9737 62.68Z" fill="#D2D2D2"/>
<path fill-rule="evenodd" clip-rule="evenodd" d="M70.2587 82.7276C70.2699 82.3779 70.2756 82.0266 70.2756 81.6741C70.2756 74.8065 68.1316 68.4396 64.4764 63.2063C68.1316 57.9729 70.2756 51.6061 70.2756 44.7384C70.2756 43.9997 70.2508 43.2668 70.202 42.5404C73.8594 48.3788 75.9738 55.2825 75.9738 62.6799C75.9738 62.9099 75.9718 63.1394 75.9677 63.3684C75.8414 70.4671 73.7679 77.0906 70.2587 82.7276Z" fill="#B5B5B5"/>
<path fill-rule="evenodd" clip-rule="evenodd" d="M5.78374 58.127C12.4994 68.8471 24.4173 75.9759 38.0002 75.9759L38.0002 51.2834C27.0345 51.2834 17.3455 45.8173 11.5093 37.4611C17.3455 29.105 27.0345 23.6389 38.0002 23.6389L38.0003 -1.52588e-05C24.379 -1.64496e-05 12.4321 7.16902 5.72698 17.9398C5.72699 17.9395 5.72699 17.9391 5.72701 17.9388C2.10442 23.7579 0.0118486 30.6283 0.011848 37.9875C0.0118473 45.3849 2.12628 52.2886 5.78374 58.127ZM5.78374 58.127C5.73491 57.4006 5.71011 56.6677 5.71011 55.929C5.71011 49.0613 7.85409 42.6945 11.5093 37.4611C7.8541 32.2278 5.71011 25.8609 5.71011 18.9933C5.71011 18.6408 5.71576 18.2896 5.72698 17.9398C2.10441 23.7589 0.0118486 30.6292 0.011848 37.9884C0.0118473 45.3859 2.12631 52.2896 5.78381 58.128C5.78378 58.1277 5.78376 58.1273 5.78374 58.127Z" fill="white"/>
<path fill-rule="evenodd" clip-rule="evenodd" d="M5.71516 17.9408C5.70395 18.2906 5.6983 18.6418 5.6983 18.9943C5.6983 25.862 7.84228 32.2289 11.4974 37.4622C7.84228 42.6955 5.69829 49.0624 5.69829 55.9301C5.69829 56.6688 5.72309 57.4017 5.77192 58.128C2.11446 52.2896 3.35389e-05 45.386 3.41856e-05 37.9885C3.42107e-05 37.7011 0.00322714 37.4143 0.00957959 37.1284C0.16601 30.0946 2.23425 23.5324 5.71516 17.9408Z" fill="#EFEFEF"/>
</g>
<path d="M371.288 59.0797V53.0396H387.042L386.287 54.3483C386.287 54.2141 386.287 54.0715 386.287 53.9205C386.287 53.7527 386.287 53.6101 386.287 53.4926C386.287 52.9222 386.119 52.335 385.784 51.7309C385.465 51.1102 384.936 50.59 384.198 50.1706C383.477 49.7511 382.504 49.5414 381.279 49.5414C380.088 49.5414 379.089 49.7931 378.284 50.2964C377.479 50.7998 376.875 51.5464 376.472 52.5363C376.069 53.5094 375.868 54.7007 375.868 56.11C375.868 57.5865 376.061 58.8448 376.447 59.8851C376.833 60.9253 377.445 61.7223 378.284 62.2759C379.123 62.8128 380.222 63.0813 381.581 63.0813C382.386 63.0813 383.074 63.0226 383.645 62.9051C384.215 62.7877 384.668 62.6367 385.004 62.4521C385.356 62.2676 385.616 62.0662 385.784 61.8481C385.968 61.63 386.077 61.4203 386.111 61.2189H396.127C396.01 62.3934 395.582 63.5259 394.844 64.6165C394.122 65.7071 393.124 66.6886 391.849 67.561C390.574 68.4167 389.039 69.0962 387.243 69.5996C385.448 70.0861 383.418 70.3294 381.153 70.3294C378.015 70.3294 375.297 69.7422 372.999 68.5677C370.7 67.3765 368.93 65.7322 367.689 63.635C366.447 61.5209 365.826 59.0965 365.826 56.3617C365.826 53.5597 366.464 51.1102 367.739 49.0129C369.014 46.9156 370.801 45.2882 373.1 44.1305C375.415 42.9728 378.099 42.394 381.153 42.394C384.307 42.394 387.025 42.9896 389.307 44.1808C391.606 45.3553 393.376 47.0331 394.617 49.2142C395.859 51.3786 396.48 53.954 396.48 56.9405C396.48 57.4439 396.471 57.8717 396.455 58.2241C396.438 58.5764 396.413 58.8616 396.379 59.0797H371.288Z" fill="white"/>
<path d="M350.921 70.3042C348.791 70.3042 346.853 69.7086 345.108 68.5174C343.38 67.3261 342.004 65.7238 340.98 63.7105C339.957 61.6803 339.445 59.4321 339.445 56.9657C339.445 56.8818 339.445 56.7979 339.445 56.714C339.445 56.6301 339.445 56.5462 339.445 56.4623L343.019 56.3868C343.019 56.4372 343.019 56.4959 343.019 56.563C343.019 56.6133 343.019 56.6637 343.019 56.714C343.019 57.8214 343.262 58.7526 343.749 59.5076C344.252 60.2626 344.881 60.833 345.636 61.2189C346.408 61.588 347.197 61.7726 348.002 61.7726C349.277 61.7726 350.443 61.328 351.5 60.4387C352.557 59.5495 353.086 58.115 353.086 56.1352C353.086 54.1554 352.557 52.746 351.5 51.9071C350.46 51.0514 349.294 50.6236 348.002 50.6236C347.213 50.6236 346.433 50.8081 345.661 51.1773C344.906 51.5296 344.277 52.0665 343.774 52.788C343.271 53.5094 343.019 54.4322 343.019 55.5563L339.445 55.3047C339.445 52.8215 339.957 50.6152 340.98 48.6857C342.004 46.7395 343.38 45.2127 345.108 44.1053C346.853 42.9812 348.791 42.4191 350.921 42.4191C353.086 42.4191 355.124 42.9476 357.037 44.0046C358.966 45.0617 360.535 46.6136 361.743 48.6605C362.951 50.6907 363.555 53.1822 363.555 56.1352C363.555 59.2559 362.968 61.8649 361.794 63.9621C360.619 66.0594 359.076 67.6449 357.163 68.7187C355.25 69.7757 353.17 70.3042 350.921 70.3042ZM332.851 69.6751V30.3389H343.019V69.6751H332.851Z" fill="white"/>
<path d="M318.458 69.6751V42.9476H328.5V69.6751H318.458ZM323.466 39.8017C321.973 39.8017 320.664 39.4158 319.54 38.6441C318.433 37.8723 317.879 36.7733 317.879 35.3472C317.879 33.9043 318.433 32.8053 319.54 32.0503C320.664 31.2785 321.973 30.8926 323.466 30.8926C324.959 30.8926 326.26 31.2785 327.367 32.0503C328.491 32.8053 329.053 33.9043 329.053 35.3472C329.053 36.7901 328.491 37.8974 327.367 38.6692C326.26 39.4242 324.959 39.8017 323.466 39.8017Z" fill="white"/>
<path d="M294.069 69.6751V42.9476H304.236V52.8383L302.5 51.4793C302.751 50.0531 303.146 48.778 303.682 47.6539C304.219 46.5297 304.89 45.5818 305.696 44.81C306.518 44.0214 307.457 43.4258 308.515 43.0231C309.588 42.6037 310.78 42.394 312.088 42.394C313.179 42.394 314.001 42.4695 314.555 42.6205C315.125 42.7547 315.477 42.8637 315.612 42.9476L314.227 51.8064C314.076 51.7226 313.741 51.5967 313.221 51.4289C312.701 51.2444 312.071 51.1521 311.333 51.1521C310.025 51.1521 308.917 51.3618 308.011 51.7813C307.105 52.1839 306.375 52.7376 305.822 53.4423C305.268 54.1302 304.865 54.9104 304.614 55.7828C304.362 56.6385 304.236 57.511 304.236 58.4002V69.6751H294.069Z" fill="white"/>
<path d="M276.062 70.3294C272.857 70.3294 270.106 69.717 267.807 68.4922C265.509 67.2674 263.747 65.5896 262.522 63.4588C261.297 61.328 260.685 58.9036 260.685 56.1855C260.685 53.4507 261.297 51.0514 262.522 48.9877C263.747 46.924 265.509 45.3133 267.807 44.1556C270.106 42.9812 272.857 42.394 276.062 42.394C278.428 42.394 280.508 42.7295 282.303 43.4006C284.099 44.0718 285.592 44.961 286.783 46.0683C287.991 47.1589 288.897 48.3586 289.501 49.6672C290.122 50.9759 290.432 52.2762 290.432 53.5681C290.432 53.6017 290.432 53.6436 290.432 53.694C290.432 53.7275 290.432 53.7611 290.432 53.7946H280.391C280.391 53.694 280.382 53.6017 280.365 53.5178C280.365 53.4339 280.349 53.35 280.315 53.2661C280.181 52.8299 279.971 52.3769 279.686 51.9071C279.401 51.4373 278.965 51.043 278.377 50.7243C277.807 50.3887 277.001 50.2209 275.961 50.2209C274.938 50.2209 274.049 50.4558 273.294 50.9256C272.555 51.3954 271.985 52.0749 271.582 52.9641C271.179 53.8534 270.978 54.9272 270.978 56.1855C270.978 57.4103 271.179 58.5009 271.582 59.4572C271.985 60.4136 272.555 61.1602 273.294 61.6971C274.049 62.234 274.938 62.5025 275.961 62.5025C276.968 62.5025 277.773 62.3515 278.377 62.0494C278.998 61.7474 279.459 61.3364 279.761 60.8163C280.08 60.2794 280.282 59.6754 280.365 59.0042H290.432C290.432 60.2794 290.122 61.5881 289.501 62.9303C288.897 64.2558 287.991 65.4806 286.783 66.6047C285.592 67.712 284.099 68.6097 282.303 69.2976C280.508 69.9855 278.428 70.3294 276.062 70.3294Z" fill="white"/>
<path d="M243.147 70.3294C240.395 70.3294 237.929 69.8932 235.747 69.0207C233.566 68.1315 231.838 66.8144 230.563 65.0695C229.305 63.3246 228.675 61.1602 228.675 58.5764C228.675 58.3583 228.675 58.1402 228.675 57.922C228.675 57.7039 228.675 57.4858 228.675 57.2677H238.818C238.818 57.4523 238.818 57.6368 238.818 57.8214C238.818 58.0059 238.818 58.1905 238.818 58.375C238.818 59.5495 239.179 60.531 239.9 61.3196C240.638 62.1082 241.754 62.5024 243.247 62.5024C244.69 62.5024 245.823 62.2927 246.645 61.8733C247.484 61.437 247.903 60.7324 247.903 59.7592C247.903 59.0378 247.509 58.3667 246.72 57.7459C245.948 57.1251 244.9 56.5378 243.574 55.9842C242.266 55.4305 240.806 54.902 239.195 54.3986C237.45 53.845 235.789 53.0983 234.212 52.1588C232.652 51.2192 231.377 50.0028 230.387 48.5095C229.397 46.9995 228.902 45.1288 228.902 42.8973C228.902 40.5987 229.54 38.6357 230.815 37.0082C232.09 35.3639 233.801 34.1056 235.949 33.2331C238.113 32.3607 240.512 31.9244 243.147 31.9244C245.881 31.9244 248.323 32.3523 250.47 33.208C252.635 34.0636 254.346 35.322 255.604 36.983C256.863 38.6441 257.492 40.6994 257.492 43.149C257.492 43.3671 257.492 43.5768 257.492 43.7781C257.492 43.9795 257.492 44.1892 257.492 44.4073H247.349C247.349 44.3234 247.349 44.1976 247.349 44.0298C247.349 43.8452 247.349 43.711 247.349 43.6271C247.349 42.5366 247.039 41.6138 246.418 40.8588C245.814 40.1037 244.766 39.7262 243.272 39.7262C241.796 39.7262 240.655 39.9947 239.85 40.5316C239.061 41.0685 238.667 41.8487 238.667 42.8721C238.667 43.5936 239.002 44.2311 239.673 44.7848C240.345 45.3217 241.267 45.8251 242.442 46.2948C243.633 46.7646 244.975 47.268 246.469 47.8049C248.717 48.5934 250.688 49.4659 252.383 50.4222C254.077 51.3618 255.395 52.5447 256.334 53.9708C257.29 55.3969 257.769 57.2257 257.769 59.4572C257.769 61.7894 257.139 63.7692 255.881 65.3967C254.623 67.0074 252.886 68.2322 250.672 69.0711C248.474 69.91 245.965 70.3294 243.147 70.3294Z" fill="white"/>
<path d="M200.574 59.0797V53.0396H216.329L215.574 54.3483C215.574 54.2141 215.574 54.0715 215.574 53.9205C215.574 53.7527 215.574 53.6101 215.574 53.4926C215.574 52.9222 215.406 52.335 215.07 51.7309C214.752 51.1102 214.223 50.59 213.485 50.1706C212.763 49.7511 211.79 49.5414 210.565 49.5414C209.374 49.5414 208.376 49.7931 207.57 50.2964C206.765 50.7998 206.161 51.5464 205.758 52.5363C205.356 53.5094 205.154 54.7007 205.154 56.11C205.154 57.5865 205.347 58.8448 205.733 59.8851C206.119 60.9253 206.732 61.7223 207.57 62.2759C208.409 62.8128 209.508 63.0813 210.867 63.0813C211.673 63.0813 212.361 63.0226 212.931 62.9051C213.502 62.7877 213.955 62.6367 214.29 62.4521C214.642 62.2676 214.903 62.0662 215.07 61.8481C215.255 61.63 215.364 61.4203 215.397 61.2189H225.414C225.297 62.3934 224.869 63.5259 224.13 64.6165C223.409 65.7071 222.411 66.6886 221.136 67.561C219.86 68.4167 218.325 69.0962 216.53 69.5996C214.735 70.0861 212.705 70.3294 210.44 70.3294C207.302 70.3294 204.584 69.7422 202.285 68.5677C199.987 67.3765 198.217 65.7322 196.975 63.635C195.734 61.5209 195.113 59.0965 195.113 56.3617C195.113 53.5597 195.75 51.1102 197.025 49.0129C198.301 46.9156 200.087 45.2882 202.386 44.1305C204.701 42.9728 207.386 42.394 210.44 42.394C213.594 42.394 216.312 42.9896 218.594 44.1808C220.892 45.3553 222.662 47.0331 223.904 49.2142C225.146 51.3786 225.766 53.954 225.766 56.9405C225.766 57.4439 225.758 57.8717 225.741 58.2241C225.724 58.5764 225.699 58.8616 225.666 59.0797H200.574Z" fill="white"/>
<path d="M179.641 70.3294C178.064 70.3294 176.503 70.1365 174.96 69.7506C173.416 69.3815 172.007 68.8194 170.732 68.0644C169.473 67.2926 168.458 66.3279 167.687 65.1702C166.932 64.0125 166.554 62.6535 166.554 61.0931C166.554 61.0595 166.554 61.0176 166.554 60.9673C166.554 60.9169 166.554 60.875 166.554 60.8414H176.596C176.596 60.875 176.596 60.9169 176.596 60.9673C176.596 61.0176 176.596 61.0595 176.596 61.0931C176.596 61.7978 176.898 62.2927 177.502 62.578C178.106 62.8632 178.92 63.0058 179.943 63.0058C180.312 63.0058 180.74 62.9639 181.226 62.88C181.713 62.7793 182.133 62.6199 182.485 62.4018C182.854 62.1669 183.039 61.8649 183.039 61.4958C183.039 60.9421 182.653 60.5562 181.881 60.3381C181.126 60.1032 179.8 59.8347 177.904 59.5327C176.764 59.3482 175.555 59.0797 174.28 58.7274C173.005 58.3583 171.806 57.8633 170.681 57.2425C169.557 56.605 168.643 55.7996 167.938 54.8265C167.234 53.8534 166.881 52.6537 166.881 51.2276C166.881 49.2813 167.468 47.6539 168.643 46.3452C169.834 45.0365 171.403 44.055 173.349 43.4006C175.312 42.7295 177.451 42.394 179.767 42.394C181.965 42.394 184.028 42.7715 185.958 43.5265C187.887 44.2647 189.456 45.3217 190.664 46.6975C191.872 48.0733 192.476 49.7008 192.476 51.5799C192.476 51.6135 192.476 51.6554 192.476 51.7058C192.476 51.7561 192.476 51.7981 192.476 51.8316H182.535C182.535 51.7981 182.535 51.7561 182.535 51.7058C182.535 51.6554 182.535 51.6135 182.535 51.5799C182.535 51.1102 182.384 50.741 182.082 50.4726C181.797 50.1874 181.436 49.9776 181 49.8434C180.564 49.7092 180.128 49.6421 179.691 49.6421C179.356 49.6421 178.953 49.684 178.483 49.7679C178.03 49.835 177.636 49.9692 177.3 50.1706C176.965 50.3719 176.797 50.6655 176.797 51.0514C176.797 51.387 177.007 51.6722 177.426 51.9071C177.862 52.142 178.45 52.3433 179.188 52.5111C179.943 52.6621 180.782 52.8047 181.705 52.939C182.661 53.0732 183.768 53.2913 185.027 53.5933C186.285 53.8953 187.51 54.3483 188.701 54.9523C189.892 55.5396 190.874 56.3449 191.646 57.3684C192.434 58.3751 192.829 59.667 192.829 61.2441C192.829 62.9387 192.434 64.3648 191.646 65.5225C190.874 66.6802 189.834 67.6114 188.525 68.316C187.233 69.0207 185.815 69.5325 184.272 69.8512C182.728 70.17 181.185 70.3294 179.641 70.3294Z" fill="white"/>
<path d="M144.577 70.2791C142.664 70.2791 140.953 69.9771 139.443 69.3731C137.933 68.7523 136.742 67.863 135.869 66.7054C134.997 65.5309 134.56 64.1048 134.56 62.427C134.56 60.4471 135.122 58.8532 136.247 57.6452C137.388 56.4372 138.839 55.5228 140.601 54.902C142.379 54.2812 144.216 53.8869 146.112 53.7191C148.813 53.4675 150.634 53.2494 151.573 53.0648C152.513 52.8802 152.983 52.5531 152.983 52.0833C152.983 52.0665 152.983 52.0581 152.983 52.0581C152.983 51.4373 152.605 50.9088 151.85 50.4726C151.112 50.0196 150.122 49.7931 148.88 49.7931C147.538 49.7931 146.54 50.0447 145.886 50.5481C145.231 51.0347 144.904 51.7477 144.904 52.6873H134.913C134.913 50.439 135.542 48.5515 136.8 47.0247C138.059 45.4979 139.745 44.3486 141.859 43.5768C143.99 42.7882 146.355 42.394 148.956 42.394C151.422 42.394 153.729 42.7631 155.877 43.5013C158.041 44.2395 159.795 45.3721 161.137 46.8989C162.479 48.4089 163.15 50.3468 163.15 52.7125C163.15 53.0648 163.15 53.4171 163.15 53.7695C163.15 54.1218 163.15 54.4742 163.15 54.8265V63.1065C163.15 63.8447 163.167 64.5578 163.201 65.2457C163.234 65.9336 163.335 66.5711 163.503 67.1584C163.687 67.7792 163.93 68.3161 164.232 68.7691C164.534 69.2053 164.778 69.5073 164.962 69.6751H155.046C154.895 69.5241 154.677 69.2472 154.392 68.8446C154.107 68.4419 153.872 67.9805 153.687 67.4604C153.436 66.7054 153.251 66.0007 153.134 65.3463C153.033 64.6752 152.983 63.8615 152.983 62.9051L155.197 64.4403C154.744 65.6651 153.973 66.7137 152.882 67.5862C151.808 68.4587 150.542 69.1298 149.082 69.5996C147.639 70.0526 146.137 70.2791 144.577 70.2791ZM147.597 63.0813C148.469 63.0813 149.325 62.8883 150.164 62.5025C151.02 62.1166 151.733 61.479 152.303 60.5898C152.874 59.6837 153.159 58.4589 153.159 56.9154V55.959L155.751 58.0479C154.644 58.4338 153.411 58.7609 152.052 59.0294C150.693 59.2811 149.392 59.474 148.151 59.6082C146.993 59.7257 146.129 59.9186 145.558 60.1871C145.005 60.4388 144.728 60.8498 144.728 61.4203C144.728 61.9907 144.98 62.4102 145.483 62.6786C145.986 62.9471 146.691 63.0813 147.597 63.0813Z" fill="white"/>
<path d="M131.421 55.657C131.421 57.3516 131.094 59.0629 130.439 60.7911C129.802 62.5024 128.82 64.0796 127.495 65.5225C126.186 66.9654 124.517 68.1315 122.486 69.0207C120.473 69.8932 118.082 70.3294 115.314 70.3294C111.673 70.3294 108.552 69.5157 105.952 67.8882C103.368 66.244 101.388 63.9789 100.012 61.0931C98.6533 58.2073 97.9738 54.8768 97.9738 51.1018C97.9738 47.3267 98.6533 44.0046 100.012 41.1356C101.388 38.2498 103.368 35.9931 105.952 34.3656C108.552 32.7382 111.673 31.9244 115.314 31.9244C118.334 31.9244 120.909 32.4362 123.04 33.4596C125.188 34.4831 126.908 35.8253 128.199 37.4864C129.508 39.1474 130.414 40.9259 130.917 42.8218C131.253 44.1137 131.421 45.3637 131.421 46.5717H121.228C121.228 46.0348 121.195 45.565 121.127 45.1623C120.976 44.0718 120.649 43.1238 120.146 42.3184C119.643 41.5131 118.98 40.8923 118.158 40.4561C117.352 40.0031 116.404 39.7766 115.314 39.7766C114.005 39.7766 112.822 40.1625 111.765 40.9343C110.708 41.706 109.861 42.9225 109.223 44.5835C108.603 46.2445 108.292 48.4173 108.292 51.1018C108.292 53.7695 108.603 55.9422 109.223 57.62C109.861 59.2978 110.708 60.531 111.765 61.3196C112.822 62.1082 114.005 62.5024 115.314 62.5024C116.253 62.5024 117.084 62.3347 117.805 61.9991C118.544 61.6468 119.164 61.1602 119.668 60.5394C120.171 59.9186 120.557 59.1972 120.825 58.375C121.094 57.5361 121.228 56.6301 121.228 55.657H131.421Z" fill="white"/>
<defs>
<clipPath id="clip0_2377_28107">
<rect width="75.9738" height="100.668" fill="white"/>
</clipPath>
</defs>
</svg>
