<svg width="862" height="523" viewBox="0 0 862 523" fill="none" xmlns="http://www.w3.org/2000/svg">
<g opacity="0.3" clip-path="url(#clip0_2519_23478)">
<path fill-rule="evenodd" clip-rule="evenodd" d="M656.994 124.663C658.479 124.616 659.97 124.592 661.467 124.592C690.63 124.592 717.666 133.696 739.889 149.217C762.112 133.696 789.148 124.592 818.311 124.592C821.448 124.592 824.56 124.697 827.645 124.904C802.853 109.373 773.537 100.395 742.124 100.395C741.148 100.395 740.173 100.403 739.201 100.421C709.057 100.957 680.931 109.762 656.994 124.663Z" fill="white"/>
<path fill-rule="evenodd" clip-rule="evenodd" d="M655.577 221.452C657.062 221.404 658.553 221.38 660.05 221.38C689.213 221.38 716.249 230.485 738.472 246.006C760.695 230.485 787.731 221.38 816.894 221.38C820.031 221.38 823.143 221.486 826.228 221.693C801.436 206.162 772.12 197.183 740.707 197.183C739.731 197.183 738.756 197.192 737.784 197.209C707.64 197.746 679.514 206.55 655.577 221.452Z" fill="white"/>
<path fill-rule="evenodd" clip-rule="evenodd" d="M741.611 269.846C743.096 269.798 744.587 269.774 746.084 269.774C775.247 269.774 802.284 278.879 824.506 294.4C846.729 278.879 873.766 269.774 902.928 269.774C906.065 269.774 909.178 269.88 912.262 270.087C887.47 254.556 858.154 245.577 826.741 245.577C825.765 245.577 824.79 245.586 823.818 245.603C793.674 246.14 765.548 254.944 741.611 269.846Z" fill="white"/>
<path fill-rule="evenodd" clip-rule="evenodd" d="M828.916 221.452C830.402 221.404 831.893 221.38 833.39 221.38C862.553 221.38 889.589 230.485 911.812 246.006C934.035 230.485 961.071 221.38 990.234 221.38C993.371 221.38 996.483 221.486 999.568 221.693C974.775 206.162 945.46 197.183 914.047 197.183C913.071 197.183 912.096 197.192 911.124 197.209C880.98 197.746 852.853 206.55 828.916 221.452Z" fill="white"/>
<path fill-rule="evenodd" clip-rule="evenodd" d="M482.237 221.452C483.722 221.404 485.214 221.38 486.71 221.38C515.873 221.38 542.91 230.485 565.133 246.006C587.355 230.485 614.392 221.38 643.555 221.38C646.691 221.38 649.804 221.486 652.888 221.693C628.096 206.162 598.78 197.183 567.368 197.183C566.391 197.183 565.416 197.192 564.444 197.209C534.3 197.746 506.174 206.55 482.237 221.452Z" fill="white"/>
<path fill-rule="evenodd" clip-rule="evenodd" d="M568.271 269.846C569.756 269.798 571.248 269.774 572.745 269.774C601.907 269.774 628.944 278.879 651.167 294.4C673.389 278.879 700.426 269.774 729.589 269.774C732.726 269.774 735.838 269.88 738.922 270.087C714.13 254.556 684.814 245.577 653.402 245.577C652.425 245.577 651.451 245.586 650.478 245.603C620.334 246.14 592.208 254.944 568.271 269.846Z" fill="white"/>
<path fill-rule="evenodd" clip-rule="evenodd" d="M654.305 318.241C655.79 318.193 657.282 318.169 658.779 318.169C687.942 318.169 714.978 327.273 737.201 342.794C759.424 327.273 786.46 318.169 815.623 318.169C818.76 318.169 821.872 318.274 824.956 318.482C800.164 302.95 770.849 293.972 739.436 293.972C738.459 293.972 737.485 293.98 736.512 293.998C706.368 294.534 678.242 303.339 654.305 318.241Z" fill="white"/>
<path fill-rule="evenodd" clip-rule="evenodd" d="M570.959 366.635C572.445 366.587 573.936 366.563 575.433 366.563C604.596 366.563 631.632 375.667 653.855 391.188C676.078 375.667 703.114 366.563 732.277 366.563C735.414 366.563 738.526 366.668 741.611 366.876C716.818 351.344 687.503 342.366 656.09 342.366C655.114 342.366 654.139 342.374 653.167 342.392C623.023 342.928 594.896 351.733 570.959 366.635Z" fill="white"/>
<path fill-rule="evenodd" clip-rule="evenodd" d="M482.237 415.029C483.722 414.981 485.214 414.957 486.71 414.957C515.873 414.957 542.91 424.061 565.133 439.582C587.355 424.061 614.392 414.957 643.555 414.957C646.691 414.957 649.804 415.062 652.888 415.27C628.096 399.739 598.78 390.76 567.368 390.76C566.391 390.76 565.416 390.769 564.444 390.786C534.3 391.322 506.174 400.127 482.237 415.029Z" fill="white"/>
<path fill-rule="evenodd" clip-rule="evenodd" d="M388.137 463.423C389.622 463.376 391.113 463.352 392.61 463.352C421.773 463.352 448.81 472.456 471.032 487.977C493.255 472.456 520.292 463.351 549.454 463.351C552.591 463.351 555.704 463.457 558.788 463.664C533.996 448.133 504.68 439.154 473.267 439.154C472.291 439.154 471.316 439.163 470.344 439.18C440.2 439.717 412.074 448.522 388.137 463.423Z" fill="white"/>
<path fill-rule="evenodd" clip-rule="evenodd" d="M468.794 511.817C470.279 511.77 471.771 511.746 473.267 511.746C502.43 511.746 529.467 520.85 551.69 536.371C573.912 520.85 600.949 511.745 630.112 511.745C633.248 511.745 636.361 511.851 639.445 512.058C614.653 496.527 585.337 487.548 553.925 487.548C552.948 487.548 551.973 487.557 551.001 487.574C520.857 488.111 492.731 496.916 468.794 511.817Z" fill="white"/>
<path fill-rule="evenodd" clip-rule="evenodd" d="M396.202 269.846C397.688 269.798 399.179 269.774 400.676 269.774C429.839 269.774 456.875 278.879 479.098 294.4C501.321 278.879 528.357 269.774 557.52 269.774C560.657 269.774 563.769 269.88 566.854 270.087C542.061 254.556 512.746 245.577 481.333 245.577C480.357 245.577 479.382 245.586 478.41 245.603C448.266 246.14 420.139 254.944 396.202 269.846Z" fill="white"/>
<path fill-rule="evenodd" clip-rule="evenodd" d="M482.237 318.24C483.722 318.193 485.214 318.169 486.71 318.169C515.873 318.169 542.91 327.273 565.133 342.794C587.355 327.273 614.392 318.169 643.555 318.169C646.691 318.169 649.804 318.274 652.888 318.481C628.096 302.95 598.78 293.972 567.368 293.972C566.391 293.972 565.416 293.98 564.444 293.998C534.3 294.534 506.174 303.339 482.237 318.24Z" fill="white"/>
<path fill-rule="evenodd" clip-rule="evenodd" d="M398.891 366.635C400.377 366.587 401.868 366.563 403.365 366.563C432.528 366.563 459.564 375.667 481.787 391.188C504.01 375.667 531.046 366.563 560.209 366.563C563.346 366.563 566.458 366.668 569.542 366.876C544.75 351.344 515.435 342.366 484.022 342.366C483.045 342.366 482.071 342.374 481.098 342.392C450.954 342.928 422.828 351.733 398.891 366.635Z" fill="white"/>
<path fill-rule="evenodd" clip-rule="evenodd" d="M310.168 415.029C311.653 414.981 313.145 414.957 314.642 414.957C343.805 414.957 370.841 424.061 393.064 439.582C415.287 424.061 442.323 414.957 471.486 414.957C474.623 414.957 477.735 415.062 480.819 415.27C456.027 399.739 426.712 390.76 395.299 390.76C394.322 390.76 393.348 390.769 392.375 390.786C362.231 391.322 334.105 400.127 310.168 415.029Z" fill="white"/>
<path fill-rule="evenodd" clip-rule="evenodd" d="M216.068 463.423C217.554 463.376 219.045 463.352 220.542 463.352C249.705 463.352 276.741 472.456 298.964 487.977C321.187 472.456 348.223 463.351 377.386 463.351C380.523 463.351 383.635 463.457 386.719 463.664C361.927 448.133 332.612 439.154 301.199 439.154C300.222 439.154 299.248 439.163 298.275 439.18C268.132 439.717 240.005 448.522 216.068 463.423Z" fill="white"/>
<path fill-rule="evenodd" clip-rule="evenodd" d="M296.725 511.817C298.211 511.77 299.702 511.746 301.199 511.746C330.362 511.746 357.398 520.85 379.621 536.371C401.844 520.85 428.88 511.746 458.043 511.745C461.18 511.745 464.292 511.851 467.376 512.058C442.584 496.527 413.269 487.548 381.856 487.548C380.879 487.548 379.905 487.557 378.932 487.574C348.788 488.111 320.662 496.916 296.725 511.817Z" fill="white"/>
<path fill-rule="evenodd" clip-rule="evenodd" d="M310.168 318.241C311.654 318.193 313.145 318.169 314.642 318.169C343.805 318.169 370.841 327.273 393.064 342.794C415.287 327.273 442.323 318.169 471.486 318.169C474.623 318.169 477.735 318.274 480.819 318.481C456.027 302.95 426.712 293.972 395.299 293.972C394.322 293.972 393.348 293.98 392.375 293.998C362.231 294.534 334.105 303.339 310.168 318.241Z" fill="white"/>
<path fill-rule="evenodd" clip-rule="evenodd" d="M226.822 366.635C228.308 366.587 229.799 366.563 231.296 366.563C260.459 366.563 287.495 375.667 309.718 391.188C331.941 375.667 358.977 366.563 388.14 366.563C391.277 366.563 394.389 366.668 397.474 366.876C372.681 351.344 343.366 342.366 311.953 342.366C310.977 342.366 310.002 342.374 309.03 342.392C278.886 342.928 250.759 351.733 226.822 366.635Z" fill="white"/>
<path fill-rule="evenodd" clip-rule="evenodd" d="M138.1 415.029C139.585 414.981 141.076 414.957 142.573 414.957C171.736 414.957 198.773 424.061 220.995 439.582C243.218 424.061 270.255 414.957 299.417 414.957C302.554 414.957 305.667 415.062 308.751 415.27C283.959 399.739 254.643 390.76 223.23 390.76C222.254 390.76 221.279 390.769 220.307 390.786C190.163 391.322 162.037 400.127 138.1 415.029Z" fill="white"/>
<path fill-rule="evenodd" clip-rule="evenodd" d="M43.9999 463.423C45.4853 463.376 46.9766 463.352 48.4736 463.352C77.6364 463.352 104.673 472.456 126.896 487.977C149.118 472.456 176.155 463.351 205.318 463.351C208.455 463.351 211.567 463.457 214.651 463.664C189.859 448.133 160.543 439.154 129.131 439.154C128.154 439.154 127.18 439.163 126.207 439.18C96.0631 439.717 67.9369 448.522 43.9999 463.423Z" fill="white"/>
<path fill-rule="evenodd" clip-rule="evenodd" d="M124.657 511.817C126.142 511.77 127.634 511.746 129.131 511.746C158.293 511.746 185.33 520.85 207.553 536.371C229.775 520.85 256.812 511.746 285.975 511.745C289.111 511.745 292.224 511.851 295.308 512.058C270.516 496.527 241.2 487.548 209.788 487.548C208.811 487.548 207.837 487.557 206.864 487.574C176.72 488.111 148.594 496.916 124.657 511.817Z" fill="white"/>
<path fill-rule="evenodd" clip-rule="evenodd" d="M823.685 415.029C825.17 414.981 826.662 414.957 828.159 414.957C857.321 414.957 884.358 424.061 906.581 439.582C928.803 424.061 955.84 414.957 985.003 414.957C988.14 414.957 991.252 415.062 994.336 415.27C969.544 399.739 940.228 390.76 908.816 390.76C907.839 390.76 906.865 390.769 905.892 390.786C875.748 391.322 847.622 400.127 823.685 415.029Z" fill="white"/>
<path fill-rule="evenodd" clip-rule="evenodd" d="M729.585 463.423C731.07 463.376 732.562 463.352 734.058 463.352C763.221 463.352 790.258 472.456 812.481 487.977C834.703 472.456 861.74 463.351 890.903 463.351C894.039 463.351 897.152 463.457 900.236 463.664C875.444 448.133 846.128 439.154 814.716 439.154C813.739 439.154 812.764 439.163 811.792 439.18C781.648 439.717 753.522 448.522 729.585 463.423Z" fill="white"/>
<path fill-rule="evenodd" clip-rule="evenodd" d="M810.242 511.817C811.727 511.77 813.219 511.746 814.716 511.746C843.879 511.746 870.915 520.85 893.138 536.371C915.361 520.85 942.397 511.745 971.56 511.745C974.697 511.745 977.809 511.851 980.893 512.058C956.101 496.527 926.786 487.548 895.373 487.548C894.396 487.548 893.422 487.557 892.449 487.574C862.305 488.111 834.179 496.916 810.242 511.817Z" fill="white"/>
<path fill-rule="evenodd" clip-rule="evenodd" d="M823.685 318.241C825.17 318.193 826.662 318.169 828.159 318.169C857.321 318.169 884.358 327.273 906.581 342.794C928.803 327.273 955.84 318.169 985.003 318.169C988.14 318.169 991.252 318.274 994.336 318.481C969.544 302.95 940.228 293.972 908.816 293.972C907.839 293.972 906.865 293.98 905.892 293.998C875.748 294.534 847.622 303.339 823.685 318.241Z" fill="white"/>
<path fill-rule="evenodd" clip-rule="evenodd" d="M740.339 366.635C741.825 366.587 743.316 366.563 744.813 366.563C773.976 366.563 801.012 375.667 823.235 391.188C845.458 375.667 872.494 366.563 901.657 366.563C904.794 366.563 907.906 366.668 910.99 366.876C886.198 351.344 856.883 342.366 825.47 342.366C824.493 342.366 823.519 342.374 822.546 342.392C792.403 342.928 764.276 351.733 740.339 366.635Z" fill="white"/>
<path fill-rule="evenodd" clip-rule="evenodd" d="M651.616 415.029C653.102 414.981 654.593 414.957 656.09 414.957C685.253 414.957 712.289 424.061 734.512 439.582C756.735 424.061 783.771 414.957 812.934 414.957C816.071 414.957 819.183 415.062 822.268 415.27C797.475 399.739 768.16 390.76 736.747 390.76C735.77 390.76 734.796 390.769 733.824 390.786C703.68 391.322 675.553 400.127 651.616 415.029Z" fill="white"/>
<path fill-rule="evenodd" clip-rule="evenodd" d="M557.517 463.423C559.002 463.376 560.493 463.352 561.99 463.352C591.153 463.352 618.189 472.456 640.412 487.977C662.635 472.456 689.671 463.351 718.834 463.351C721.971 463.351 725.083 463.457 728.168 463.664C703.376 448.133 674.06 439.154 642.647 439.154C641.671 439.154 640.696 439.163 639.724 439.18C609.58 439.717 581.454 448.522 557.517 463.423Z" fill="white"/>
<path fill-rule="evenodd" clip-rule="evenodd" d="M638.174 511.817C639.659 511.77 641.15 511.746 642.647 511.746C671.81 511.746 698.847 520.85 721.069 536.371C743.292 520.85 770.329 511.745 799.491 511.745C802.628 511.745 805.741 511.851 808.825 512.058C784.033 496.527 754.717 487.548 723.304 487.548C722.328 487.548 721.353 487.557 720.381 487.574C690.237 488.111 662.111 496.916 638.174 511.817Z" fill="white"/>
<path fill-rule="evenodd" clip-rule="evenodd" d="M570.959 173.057C572.445 173.01 573.936 172.986 575.433 172.986C604.596 172.986 631.632 182.09 653.855 197.611C676.078 182.09 703.114 172.986 732.277 172.986C735.414 172.986 738.526 173.091 741.611 173.298C716.818 157.767 687.503 148.789 656.09 148.789C655.114 148.789 654.139 148.797 653.167 148.815C623.023 149.351 594.896 158.156 570.959 173.057Z" fill="white"/>
<path fill-rule="evenodd" clip-rule="evenodd" d="M743.028 173.057C744.513 173.01 746.004 172.986 747.501 172.986C776.664 172.986 803.701 182.09 825.923 197.611C848.146 182.09 875.183 172.986 904.345 172.986C907.482 172.986 910.595 173.091 913.679 173.298C888.887 157.767 859.571 148.789 828.158 148.789C827.182 148.789 826.207 148.797 825.235 148.815C795.091 149.351 766.965 158.156 743.028 173.057Z" fill="white"/>
</g>
<defs>
<clipPath id="clip0_2519_23478">
<rect width="523" height="862" fill="white" transform="matrix(4.37114e-08 1 1 -4.37114e-08 0 6.10352e-05)"/>
</clipPath>
</defs>
</svg>
